<?xml version="1.0" encoding="UTF-8"?>
<!DOCTYPE svg PUBLIC "-//W3C//DTD SVG 1.1//EN" "http://www.w3.org/Graphics/SVG/1.1/DTD/svg11.dtd">
<svg xmlns="http://www.w3.org/2000/svg" xml:space="preserve" width="400px" height="150px" version="1.1" fill="#e04951" style="shape-rendering:geometricPrecision; text-rendering:geometricPrecision; image-rendering:optimizeQuality; fill-rule:evenodd; clip-rule:evenodd"
viewBox="0 0 14800 21000"
 xmlns:xlink="http://www.w3.org/1999/xlink"
 xmlns:xodm="http://www.corel.com/coreldraw/odm/2003">
 <g id="Слой_x0020_1">
  <metadata id="CorelCorpID_0Corel-Layer"/>
  <path class="fil0" d="M-36523.95 11961.84l0 349.16c237.01,0 43975.14,52.11 44378.17,-19.22 734.34,-130.05 975.57,-1528.51 1552.94,-2598.22 257.56,73.52 413.4,649.56 606.25,1079.21 138.22,308.28 365.8,892.42 524.86,1146.46 324.1,517.6 827,249.54 1088.79,580.76 315.38,399.03 143.22,1001.48 804.81,845.23 151.67,-443.04 532.87,-5136.43 617.16,-6012.94 90.35,-939.64 465.49,-5565.75 592.67,-6062.49 337.7,2710.73 521.74,5527.43 782.06,8265.29 260.96,2741.92 512.61,5491.53 770.31,8229.63 64.5,685.55 126.74,1348.47 190.53,2031.9 21.21,227.02 29.02,848.33 155.77,978.94 360.49,371.64 493.45,-177.64 519.13,-456.33l732.31 -7209.95c37.59,-375.72 -8.82,-687.45 351.49,-775.45 544.92,-133.14 1693.77,118.22 2150.46,-119.92 436,-227.35 669.83,-1127.14 998.32,-1273.55 253.95,179.06 475.85,740.75 694.76,1038.3 308.32,419.25 764.46,332.35 1394.86,332.35l28925.59 -0.36 0 -348.8 -28865.88 0c-787.84,0.34 -963.61,141.51 -1314.03,-421.98 -148.01,-238.07 -437.83,-876.08 -736.46,-938.32 -458.02,-95.27 -691.58,512.09 -880.71,812.42 -381.86,606.1 -306.78,550.47 -1188.5,548.08 -1624.61,-4.58 -1757.21,-154.69 -1915.55,1482.31 -192.44,1989.73 -352.64,4224.41 -641.33,6168.92l-810.22 -8163.61c-258.14,-2724.97 -513.11,-5421.89 -760.45,-8139.32 -28.82,-316.45 -207.45,-2901.28 -339.82,-3067.93 -233.2,-293.36 -485.35,-41.55 -522.74,320.5 -141.67,1374.11 -257.5,2738.26 -384.59,4112.3 -125.56,1356.71 -252.36,2725.45 -383.47,4073.06 -58.44,599.65 -313.42,3728.07 -405.57,4029.78 -210.48,-363.34 -220.74,-636.45 -633.02,-767.29 -651.23,-206.72 -521.75,92.88 -837.97,-598.36 -148.14,-323.97 -768.34,-1821.7 -912.7,-1954.72 -609.55,-561.6 -990.48,784.82 -1253.67,1356.64 -542.03,1177.94 -250.19,1147.59 -1722.07,1147.52 -3801.23,-0.23 -39521.26,0 -43322.49,0z"/>
 </g>
</svg>
