<?xml version="1.0" encoding="UTF-8"?>
<!DOCTYPE svg PUBLIC "-//W3C//DTD SVG 1.1//EN" "http://www.w3.org/Graphics/SVG/1.1/DTD/svg11.dtd">
<!-- Creator: CorelDRAW 2020 (64-Bit) -->
<svg xmlns="http://www.w3.org/2000/svg" xml:space="preserve" width="148mm" height="210mm" version="1.1" style="shape-rendering:geometricPrecision; text-rendering:geometricPrecision; image-rendering:optimizeQuality; fill-rule:evenodd; clip-rule:evenodd"
viewBox="0 0 14800 21000"
 xmlns:xlink="http://www.w3.org/1999/xlink"
 xmlns:xodm="http://www.corel.com/coreldraw/odm/2003">
 <defs>
  <style type="text/css">
   <![CDATA[
    .fil1 {fill:#E24951}
    .fil2 {fill:#FEFEFE;fill-rule:nonzero}
    .fil0 {fill:#E24951;fill-rule:nonzero}
   ]]>
  </style>
 </defs>
 <g id="Слой_x0020_1">
  <metadata id="CorelCorpID_0Corel-Layer"/>
  <g id="_1790237015184">
   <path class="fil0" d="M-7731.04 6168.2l30245.23 0c1191.71,0 2276.68,488.44 3063.68,1275.24 786.99,784.68 1275.24,1869.84 1275.24,3063.68 0,1193.84 -488.25,2279.2 -1274.08,3065.03 -785.84,785.84 -1871.2,1274.09 -3064.84,1274.09l-30245.23 0c-1193.84,0 -2279,-488.25 -3064.84,-1274.09 -785.64,-788.15 -1274.08,-1873.13 -1274.08,-3064.84 0,-1191.51 488.05,-2275.91 1274.08,-3062.9l2.13 -2.13c786.99,-786.03 1871.39,-1274.08 3062.71,-1274.08zm30245.23 1023.29l-30245.23 0c-912.69,0 -1741.64,372.42 -2341.27,972.24l-2.12 2.12c-599.82,599.63 -972.25,1428.59 -972.25,2341.27 0,912.68 372.43,1741.83 972.25,2341.46l2.12 0c600.98,600.98 1429.94,974.37 2341.27,974.37l30245.23 0c911.13,0 1740.28,-373.39 2341.26,-974.37 600.98,-600.98 974.37,-1430.13 974.37,-2341.27 0,-911.52 -373.39,-1740.48 -974.37,-2341.46l0 -2.12c-599.62,-599.82 -1428.77,-972.24 -2341.26,-972.24z"/>
   <path class="fil1" d="M-7731.04 6679.84l18414.75 0 0 7654.75 -18414.75 0c-2105.17,0 -3827.28,-1722.11 -3827.28,-3827.28l0 -0.19c0,-2105.17 1722.11,-3827.28 3827.28,-3827.28z"/>
   <path class="fil0" d="M-7731.04 6486.48l18608.12 0 0 8041.48 -18608.12 0c-1106.05,0 -2111.36,-452.48 -2839.76,-1180.88 -728.41,-729.18 -1180.88,-1734.68 -1180.88,-2839.77 0,-1105.27 452.28,-2110.39 1180.88,-2839.18 729.56,-729.37 1734.68,-1181.65 2839.76,-1181.65zm18221.39 386.73l-18221.39 0c-999.7,0 -1908.32,408.58 -2566.34,1066.79 -658.99,658.8 -1067.57,1567.42 -1067.57,2567.12 0,999.7 408.58,1908.52 1066.79,2566.54 659.38,658.6 1568,1067.57 2567.12,1067.57l18221.39 0 0 -7268.02z"/>
   <g>
    <path class="fil2" d="M-7279.34 9700.4c0,-139.42 29.97,-273.03 89.92,-400.85 60.13,-127.81 145.21,-239 255.62,-333.94 110.42,-94.94 243.84,-171.32 400.66,-229.52 156.82,-58.01 334.13,-87.02 531.56,-87.02 181.95,0 347.48,29.01 496.56,87.02 149.08,58.2 277.87,139.41 386.34,244.02 108.29,104.62 191.63,227.6 249.64,368.75 58.2,141.35 87.21,295.27 87.21,461.76l-668.08 0c0,-162.62 -48.34,-290.24 -145.02,-383.25 -96.88,-93.01 -232.43,-139.42 -406.65,-139.42 -174.22,0 -309.77,42.54 -406.65,127.82 -96.68,85.08 -145.22,178.09 -145.22,278.83 0,108.28 46.6,191.62 139.42,249.63 93.01,58.21 209.22,110.42 348.44,156.82 139.42,46.6 291.41,94.95 455.96,145.22 164.75,50.47 316.73,118.15 455.95,203.42 139.42,85.08 255.63,196.46 348.64,333.94 92.82,137.49 139.42,316.54 139.42,537.17 0,131.68 -32.1,259.5 -95.91,383.44 -63.81,123.95 -153.92,235.14 -270.13,333.95 -116.21,98.81 -256.4,178.09 -421.15,238.22 -164.56,59.95 -347.48,89.92 -548.77,89.92 -205.16,0 -388.28,-29.01 -548.97,-87.02 -160.68,-58.2 -297.2,-140.38 -409.35,-246.92 -112.35,-106.55 -198.59,-232.43 -258.53,-377.45 -59.94,-145.22 -90.11,-304.94 -90.11,-479.36l697.08 0c0,162.62 54.15,295.27 162.62,397.95 108.48,102.68 257.57,153.92 447.26,153.92 205.16,0 358.11,-43.51 458.85,-130.72 100.75,-87.01 151.02,-188.72 151.02,-304.93 0,-112.35 -46.41,-199.36 -139.41,-261.43 -93.01,-61.88 -209.03,-116.99 -348.45,-165.52 -139.41,-48.35 -291.4,-95.72 -455.95,-142.32 -164.56,-46.41 -316.54,-110.22 -455.96,-191.63 -139.42,-81.21 -255.63,-186.79 -348.64,-316.54 -92.81,-129.74 -139.22,-301.06 -139.22,-513.96zm5546.88 1649.6c-30.94,131.49 -83.15,258.34 -156.82,380.35 -73.48,122.01 -164.56,230.49 -273.03,325.24 -108.29,94.94 -232.24,170.35 -371.65,226.62 -139.42,56.08 -288.5,84.12 -447.26,84.12 -181.95,0 -353.27,-35.78 -513.96,-107.51 -160.88,-71.55 -302.04,-169.39 -424.05,-293.15 -122.01,-123.94 -218.89,-268.19 -290.44,-432.75 -71.73,-164.55 -107.51,-341.67 -107.51,-531.56 0,-189.69 35.78,-366.81 107.51,-531.37 71.55,-164.55 168.43,-308.8 290.44,-432.75 122.01,-123.94 263.17,-221.59 424.05,-293.33 160.69,-71.55 332.01,-107.51 513.96,-107.51 158.76,0 307.84,28.23 447.26,84.3 139.41,56.08 263.36,131.69 371.65,226.43 108.47,94.95 199.55,203.42 273.03,325.24 73.67,122.02 125.88,248.87 156.82,380.55l-667.89 0c-31.13,-69.61 -73.67,-131.68 -127.81,-185.83 -46.41,-46.6 -106.55,-90.1 -180.02,-130.71 -73.68,-40.61 -164.56,-60.91 -273.04,-60.91 -189.69,0 -348.44,65.74 -476.26,197.42 -127.81,131.69 -191.62,307.84 -191.62,528.47 0,220.82 63.81,396.98 191.62,528.66 127.82,131.68 286.57,197.43 476.26,197.43 108.48,0 199.36,-19.34 273.04,-58.01 73.47,-38.87 133.61,-81.41 180.02,-127.82 54.14,-54.33 96.68,-118.14 127.81,-191.62l667.89 0zm1713.41 -1713.6c30.93,0 58.2,1.93 81.4,5.8 23.21,3.86 44.48,7.73 63.81,11.6 19.34,3.87 38.68,7.73 58.21,11.79l0 696.89c-19.53,-3.86 -40.8,-7.73 -64.01,-11.6 -19.33,-3.87 -43.5,-7.73 -72.51,-11.6 -29,-3.87 -61.1,-5.8 -95.91,-5.8 -162.62,0 -295.27,53.17 -397.94,159.72 -102.49,106.54 -153.92,246.93 -153.92,421.15l0 1422.97 -667.89 0 0 -2671.73 493.66 0 116.22 290.25c46.4,-58.01 102.67,-110.22 168.42,-156.82 54.33,-42.54 121.05,-80.25 200.32,-113.12 79.48,-33.07 169.59,-49.5 270.14,-49.5zm2991.36 1887.82c-35,100.55 -88.18,201.29 -159.72,302.04 -71.74,100.55 -158.76,190.66 -261.43,269.94 -102.68,79.47 -218.89,144.25 -348.45,194.71 -129.75,50.28 -270.13,75.42 -421.15,75.42 -181.95,0 -353.27,-35.78 -513.96,-107.51 -160.88,-71.55 -302.04,-169.39 -424.05,-293.15 -122.01,-123.94 -218.89,-268.19 -290.44,-432.75 -71.73,-164.55 -107.51,-341.67 -107.51,-531.56 0,-189.69 35.78,-366.81 107.51,-531.37 71.55,-164.55 168.43,-308.8 290.44,-432.75 122.01,-123.94 263.17,-221.59 424.05,-293.33 160.69,-71.55 332.01,-107.51 513.96,-107.51 174.23,0 338.78,33.06 493.66,98.81 154.89,65.74 290.44,158.75 406.65,278.83 116.21,120.08 208.06,264.33 275.93,432.75 67.68,168.42 101.52,353.28 101.52,554.57 0,30.94 -1.93,61.11 -5.8,90.11 -3.87,29 -7.73,57.04 -11.6,84.11 -3.87,31.14 -7.74,60.14 -11.6,87.21l-1858.63 0c30.94,131.68 96.88,242.09 197.43,331.04 100.74,89.14 238.22,133.62 412.44,133.62 88.95,0 163.59,-9.67 223.53,-29.01 60.14,-19.33 111.38,-42.54 153.92,-69.8 46.6,-30.94 85.28,-65.75 116.21,-104.42l697.09 0zm-1190.75 -1248.75c-174.22,0 -316.54,50.27 -426.95,150.82 -110.41,100.75 -180.99,224.69 -211.93,371.84l1277.76 0c-30.94,-147.15 -101.71,-271.09 -211.93,-371.84 -110.41,-100.55 -252.72,-150.82 -426.95,-150.82zm4152.91 1248.75c-35,100.55 -88.18,201.29 -159.72,302.04 -71.74,100.55 -158.75,190.66 -261.43,269.94 -102.68,79.47 -218.89,144.25 -348.44,194.71 -129.75,50.28 -270.14,75.42 -421.15,75.42 -181.96,0 -353.28,-35.78 -513.97,-107.51 -160.88,-71.55 -302.04,-169.39 -424.05,-293.15 -122.01,-123.94 -218.89,-268.19 -290.43,-432.75 -71.74,-164.55 -107.51,-341.67 -107.51,-531.56 0,-189.69 35.77,-366.81 107.51,-531.37 71.54,-164.55 168.42,-308.8 290.43,-432.75 122.01,-123.94 263.17,-221.59 424.05,-293.33 160.69,-71.55 332.01,-107.51 513.97,-107.51 174.22,0 338.77,33.06 493.66,98.81 154.88,65.74 290.43,158.75 406.64,278.83 116.22,120.08 208.07,264.33 275.94,432.75 67.67,168.42 101.51,353.28 101.51,554.57 0,30.94 -1.93,61.11 -5.8,90.11 -3.86,29 -7.73,57.04 -11.6,84.11 -3.87,31.14 -7.73,60.14 -11.6,87.21l-1858.63 0c30.94,131.68 96.88,242.09 197.43,331.04 100.74,89.14 238.22,133.62 412.45,133.62 88.94,0 163.58,-9.67 223.53,-29.01 60.13,-19.33 111.37,-42.54 153.92,-69.8 46.6,-30.94 85.27,-65.75 116.21,-104.42l697.08 0zm-1190.74 -1248.75c-174.23,0 -316.54,50.27 -426.95,150.82 -110.42,100.75 -180.99,224.69 -211.93,371.84l1277.75 0c-30.93,-147.15 -101.71,-271.09 -211.92,-371.84 -110.42,-100.55 -252.73,-150.82 -426.95,-150.82zm3136.38 -639.07c158.75,0 303.97,26.29 435.65,78.5 131.68,52.21 244.8,127.82 339.75,226.43 94.94,98.81 168.42,217.93 220.82,357.34 52.21,139.42 78.31,296.24 78.31,470.46l0 1568.19 -667.88 0 0 -1481.18c0,-174.22 -51.44,-314.6 -153.92,-420.95 -102.68,-106.55 -235.33,-159.72 -397.95,-159.72 -162.62,0 -295.27,53.17 -397.94,159.72 -102.49,106.35 -153.92,246.73 -153.92,420.95l0 1481.18 -667.88 0 0 -2671.73 493.66 0 116.21 261.24c65.94,-54.14 137.48,-102.48 214.83,-145.22 65.94,-34.8 144.25,-67.67 235.32,-98.61 91.08,-31.13 192.6,-46.6 304.94,-46.6z"/>
    <path class="fil0" d="M15953.88 8678.08l0 3659.24 -697.08 0 0 -2032.85 -929.31 2032.85 -464.66 0 -929.31 -2032.85 0 2032.85 -697.08 0 0 -3659.24 609.87 0 1248.95 2700.92 1248.75 -2700.92 609.87 0zm3078.38 2846.14c-35,100.55 -88.18,201.29 -159.72,302.04 -71.74,100.55 -158.75,190.66 -261.43,269.94 -102.68,79.47 -218.89,144.25 -348.44,194.71 -129.75,50.28 -270.14,75.42 -421.15,75.42 -181.96,0 -353.28,-35.78 -513.97,-107.51 -160.88,-71.55 -302.04,-169.39 -424.05,-293.15 -122.01,-123.94 -218.89,-268.19 -290.43,-432.75 -71.74,-164.55 -107.51,-341.67 -107.51,-531.56 0,-189.69 35.77,-366.81 107.51,-531.37 71.54,-164.55 168.42,-308.8 290.43,-432.75 122.01,-123.94 263.17,-221.59 424.05,-293.33 160.69,-71.55 332.01,-107.51 513.97,-107.51 174.22,0 338.77,33.06 493.66,98.81 154.88,65.74 290.43,158.75 406.64,278.83 116.22,120.08 208.07,264.33 275.94,432.75 67.67,168.42 101.51,353.28 101.51,554.57 0,30.94 -1.93,61.11 -5.8,90.11 -3.86,29 -7.73,57.04 -11.6,84.11 -3.87,31.14 -7.73,60.14 -11.6,87.21l-1858.63 0c30.94,131.68 96.88,242.09 197.43,331.04 100.74,89.14 238.22,133.62 412.45,133.62 88.94,0 163.58,-9.67 223.53,-29.01 60.13,-19.33 111.37,-42.54 153.91,-69.8 46.61,-30.94 85.28,-65.75 116.22,-104.42l697.08 0zm-1190.74 -1248.75c-174.23,0 -316.54,50.27 -426.95,150.82 -110.42,100.75 -180.99,224.69 -211.93,371.84l1277.75 0c-30.93,-147.15 -101.71,-271.09 -211.92,-371.84 -110.42,-100.55 -252.73,-150.82 -426.95,-150.82zm2874.95 2090.86c-166.49,0 -325.24,-33.84 -476.26,-101.52 -151.02,-67.87 -283.66,-162.81 -397.75,-284.63 -114.28,-122.02 -205.35,-266.27 -273.03,-432.75 -67.87,-166.49 -101.71,-348.45 -101.71,-546.07 0,-197.42 33.84,-379.38 101.71,-545.87 67.68,-166.49 158.75,-310.74 273.03,-432.75 114.09,-122.01 246.73,-216.96 397.75,-284.63 151.02,-67.68 309.77,-101.71 476.26,-101.71 108.48,0 205.35,14.5 290.44,43.7 85.27,29 158.75,58.97 220.82,89.91 69.61,38.67 131.68,81.41 185.82,127.82l0 -1219.75 667.89 0 0 3659.24 -493.67 0 -116.21 -261.43c-61.87,54.34 -129.75,102.68 -203.22,145.22 -65.94,38.67 -145.22,72.71 -238.23,101.71 -92.82,29 -197.43,43.51 -313.64,43.51zm755.09 -1364.97c0,-220.63 -63.81,-396.78 -191.62,-528.47 -127.82,-131.68 -286.57,-197.42 -476.26,-197.42 -189.69,0 -348.45,65.74 -476.26,197.42 -127.81,131.69 -191.63,307.84 -191.63,528.47 0,220.82 63.82,396.98 191.63,528.66 127.81,131.68 286.57,197.43 476.26,197.43 189.69,0 348.44,-65.75 476.26,-197.43 127.81,-131.68 191.62,-307.84 191.62,-528.66z"/>
   </g>
  </g>
 </g>
</svg>
